<svg width="194" height="120" viewBox="0 0 194 120" fill="none" xmlns="http://www.w3.org/2000/svg">
<path d="M57.916 2.38083C57.3966 3.34963 56.3578 4.18003 55.6158 4.18003C53.7608 4.18003 53.2414 5.21803 54.577 6.25603C55.1706 6.74043 55.69 7.98603 55.69 9.09323C55.69 11.1 57.3224 11.8612 58.287 10.3388C58.5838 9.92363 59.6968 9.85443 60.9582 10.062C62.8132 10.4772 63.11 10.3388 63.11 9.02403C63.11 8.26283 63.6294 6.80963 64.2972 5.91003C65.4844 4.24923 65.4844 4.18003 63.6294 4.18003C62.4422 4.18003 61.255 3.48803 60.3646 2.38083L58.9548 0.650826L57.916 2.38083Z" fill="black"/>
<path d="M72.8302 2.72682C72.3108 3.62642 71.272 4.18002 70.0106 4.18002C68.1556 4.18002 68.1556 4.24922 69.3428 5.91002C70.0106 6.80962 70.53 8.40122 70.53 9.43922C70.53 11.1 70.7526 11.2384 72.8302 10.8232C74.0916 10.6156 75.724 10.754 76.5402 11.1C77.7274 11.7228 77.95 11.5844 77.95 10.3388C77.95 9.50842 78.4694 8.26282 79.1372 7.57082C80.176 6.46362 80.176 6.32522 78.5436 5.56402C77.579 5.07962 76.095 3.97242 75.2788 3.00362L73.6464 1.20442L72.8302 2.72682Z" fill="black"/>
<path d="M43.0018 4.38762C42.5566 5.35642 41.3694 6.32522 40.4048 6.53282C38.4014 7.01722 38.1046 7.98602 39.737 8.60882C40.4048 8.81642 40.85 9.85442 40.85 11.1692C40.85 12.9684 41.0726 13.2452 42.1856 12.83C42.8534 12.484 44.56 12.138 45.8956 11.9304C47.899 11.6536 48.27 11.3768 48.27 9.71602C48.27 8.67802 48.7894 7.43242 49.383 6.94802C51.0896 5.63322 50.7186 4.87202 48.4926 4.87202C47.4538 4.87202 45.9698 4.38762 45.2278 3.76482C43.9664 2.72682 43.818 2.72682 43.0018 4.38762Z" fill="black"/>
<path d="M87.3734 5.07962C87.0766 5.77162 86.112 6.25602 84.999 6.25602C82.9214 6.25602 82.6246 7.08642 84.257 8.33202C84.8506 8.81642 85.37 10.2696 85.37 11.5844C85.37 13.868 85.5184 14.0064 87.2992 13.5912C88.6348 13.2452 89.6736 13.4528 90.6382 14.2832C91.9738 15.3904 92.048 15.3904 92.048 14.214C92.048 13.522 92.6416 12.3456 93.3836 11.5844C94.4224 10.4772 94.4224 10.1312 93.6062 9.85442C92.5674 9.50842 91.3802 8.40122 89.1542 5.63322C88.0412 4.18002 87.7444 4.11082 87.3734 5.07962Z" fill="black"/>
<path d="M28.3844 8.95483C27.9392 10.062 26.9004 11.1692 26.0842 11.446C24.2292 11.9996 24.0808 12.6916 25.639 13.868C26.2326 14.3524 26.752 15.4596 26.752 16.4284V18.0892L28.9038 16.5668C30.091 15.7364 31.6492 15.252 32.2428 15.4596C33.1332 15.8056 33.43 15.4596 33.43 14.0064C33.43 12.8992 33.9494 11.446 34.543 10.6848C36.1012 8.74723 35.8786 8.33203 33.5042 8.33203C32.2428 8.33203 31.0556 7.98603 30.833 7.64003C30.0168 6.39443 29.1264 6.87883 28.3844 8.95483Z" fill="black"/>
<path d="M49.012 16.3592C14.4348 21.0648 2.93381 41.894 15.8446 76.494C19.4062 85.9744 27.4198 99.3992 33.7268 106.25L36.1754 108.949L40.108 105.004C44.4858 100.506 48.7894 98.2228 55.1706 96.8388C61.9228 95.4548 81.8084 97.5308 116.534 103.136C142.133 107.288 155.192 107.357 167.138 103.482C178.936 99.6068 186.43 91.0952 190.734 76.7016C192.812 69.7816 193.999 55.3188 193.331 46.1844C192.812 38.9184 192.737 38.6416 191.179 39.0568C175.597 43.3472 167.584 43.278 149.924 38.78C146.882 38.0188 130.038 32.898 112.453 27.362C94.9418 21.8952 77.95 16.9128 74.8336 16.29C68.0072 15.0444 58.5838 15.0444 49.012 16.3592ZM59.2516 27.1544C60.3646 28.1924 60.4388 30.822 59.4 32.6212C58.4354 34.282 54.0576 34.4204 52.722 32.898C51.7574 31.7908 51.5348 28.2616 52.351 27.016C53.0188 26.0472 58.1386 26.1164 59.2516 27.1544ZM49.2346 30.9604C49.754 31.7908 46.5634 42.6552 44.3374 47.6376C43.2986 49.9904 41.221 53.7964 39.8112 56.0108C37.4368 59.6784 36.8432 60.0936 34.0978 60.5088C32.317 60.7856 30.6846 60.6472 30.091 60.232C27.1972 58.0176 23.042 44.5928 23.042 37.4652C23.042 34.0744 23.1162 34.0052 25.8616 33.3132C30.9814 31.9292 31.204 32.0676 31.204 36.4964C31.204 40.6484 32.8364 49.0216 34.0236 50.9592C34.543 51.8588 35.1366 51.0284 36.6948 47.1532C37.8078 44.4544 39.366 39.9564 40.108 37.1192C40.85 34.282 41.6662 31.6524 41.963 31.2372C42.4824 30.4068 48.7152 30.1992 49.2346 30.9604ZM96.3516 34.3512C98.2808 35.5968 98.5776 39.5412 96.871 40.856C95.6838 41.7556 92.419 41.3404 90.7866 40.0256C89.7478 39.2644 89.451 34.4896 90.3414 33.7284C91.2318 32.898 94.645 33.244 96.3516 34.3512ZM58.3612 44.1084C58.0644 48.2604 57.6192 53.3812 57.3966 55.5264L56.9514 59.54H53.3898H49.754V56.9104C49.754 55.5264 50.125 50.4056 50.5702 45.4924L51.4606 36.704H55.1706H58.8806L58.3612 44.1084ZM70.2332 38.9876C70.4558 39.6796 71.7172 39.818 74.611 39.6104C78.4694 39.3336 78.7662 39.4028 81.289 41.7556C83.6634 43.97 83.886 44.5236 83.886 48.1912C83.886 50.4748 83.6634 54.8344 83.3666 57.9484L82.9214 63.692H80.7696C79.5824 63.692 77.8758 63.346 77.0596 62.9308C75.5756 62.1696 75.5014 61.8236 76.0208 53.5888L76.5402 45.0772L74.5368 44.5928C70.8268 43.6932 70.2332 44.8004 69.4912 53.312L68.8976 61.1316L65.1134 60.7164C63.11 60.4396 61.3292 60.1628 61.255 60.0936C61.1066 59.9552 61.3292 57.5332 61.626 54.696C61.997 51.8588 62.2938 47.1532 62.368 44.2468C62.368 41.3404 62.5906 38.78 62.8874 38.5724C63.7778 37.6728 69.788 38.088 70.2332 38.9876ZM133.377 43.6932C134.565 44.662 134.639 48.6064 133.452 49.7136C132.19 50.89 129.148 50.7516 127.516 49.3676C125.957 48.0528 125.735 44.316 127.145 43.0012C128.109 42.0324 131.745 42.4476 133.377 43.6932ZM94.4966 44.0392C96.0548 44.3852 96.5 44.8696 96.5 46.3228C96.5 49.0908 94.9418 66.7368 94.645 67.0136C94.5708 67.152 92.8642 66.8752 90.935 66.3908L87.3734 65.5604L87.8928 58.9172C89.0058 43.3472 89.1542 42.7936 90.8608 43.2088C91.7512 43.4856 93.3094 43.8316 94.4966 44.0392ZM115.347 50.0596C118.908 51.928 120.986 54.4192 121.209 57.118C121.357 59.0556 121.134 59.194 118.612 59.4016C116.163 59.6092 115.718 59.4016 114.902 57.6716C113.566 54.696 112.008 53.312 110.153 53.312C108.149 53.312 107.111 54.8344 106.443 58.7788C105.775 62.5156 107.185 65.4912 109.93 66.3908C112.156 67.0828 112.453 67.0136 114.679 64.038C115.644 62.654 115.718 62.654 117.795 64.1072C123.806 68.3284 117.647 73.9336 109.485 71.65C101.991 69.574 98.2066 64.5224 98.9486 57.3948C99.1712 55.1112 99.9132 52.4816 100.581 51.5128C103.326 47.5684 109.485 47.0148 115.347 50.0596ZM132.487 54.0732C133.155 54.696 131.893 74.8332 131.077 76.0096C130.855 76.3556 129.148 76.2864 127.293 75.8712C123.36 75.0408 123.583 76.0788 124.844 62.4464L125.735 52.5508L128.703 52.966C130.409 53.2428 132.042 53.7272 132.487 54.0732ZM180.94 55.8724C182.275 56.6336 182.424 57.0488 181.83 58.156C181.385 58.848 180.346 59.9552 179.456 60.5088C178.046 61.4776 177.675 61.4084 175.82 60.4396C174.113 59.4708 173.371 59.4708 171.887 60.0936C170.774 60.5088 169.958 61.3392 169.958 61.962C169.958 63 170.923 63.2768 176.191 63.9688C179.975 64.4532 181.236 65.6988 181.236 68.8128C181.236 74.4872 175.449 78.916 168.103 78.916C164.17 78.916 161.054 77.2552 161.054 75.11C161.054 73.9336 163.651 71.304 164.764 71.304C165.209 71.304 166.174 71.9268 166.99 72.688C168.919 74.4872 171.071 74.418 173 72.6188C174.855 70.8888 174.41 70.3352 169.587 69.2972C165.209 68.2592 163.503 67.0136 162.909 64.384C161.944 60.3012 165.58 56.5644 172.036 54.9728C175.82 54.0732 178.268 54.2808 180.94 55.8724ZM144.953 56.08C145.249 56.2876 145.175 60.1628 144.73 64.5916C144.285 69.0896 144.136 73.034 144.359 73.38C145.027 74.3488 148.885 74.2104 149.776 73.1724C150.221 72.688 150.963 68.882 151.408 64.73C151.853 60.578 152.373 56.9796 152.595 56.6336C152.818 56.3568 154.45 56.1492 156.305 56.2184C158.754 56.2876 159.57 56.5644 159.57 57.3948C159.57 58.0176 159.199 63.0692 158.68 68.7436C157.863 78.7776 157.789 78.9852 156.008 79.4004C154.97 79.608 153.189 79.4696 152.076 79.1236C150.963 78.7084 148.514 78.57 146.659 78.7084C142.356 79.1928 139.017 77.9472 137.533 75.2484C136.568 73.5184 136.494 71.7884 136.939 65.4912C137.607 54.5576 137.533 54.7652 141.243 55.1804C142.949 55.388 144.656 55.8032 144.953 56.08ZM58.4354 70.958C60.5872 73.2416 60.2904 75.7328 57.4708 78.0164L55.6158 79.608L57.174 82.3068C59.029 85.7668 59.1032 87.4276 57.3966 87.0816C56.6546 86.9432 55.319 85.3516 54.4286 83.5524C53.093 80.9228 52.351 80.3 50.867 80.3C49.0862 80.3 49.012 80.5076 49.012 84.106C49.012 86.182 48.8636 87.912 48.7152 87.912C48.5668 87.912 47.8248 88.1196 47.0828 88.3964C45.8956 88.8116 45.8956 88.1196 46.415 79.1928C46.7118 73.9336 47.0828 69.2972 47.3054 68.9512C47.528 68.6744 49.754 68.536 52.2026 68.6744C55.9868 68.9512 56.9514 69.2972 58.4354 70.958ZM44.4116 70.4044C44.2632 71.304 43.076 71.8576 40.2564 72.2728L36.398 72.8956V75.8712V78.916L39.8112 78.4316C44.4858 77.878 43.9664 79.5388 39.1434 80.9228L35.656 81.9608V86.2512C35.656 89.2268 35.285 90.7492 34.543 91.372C33.8752 91.8564 33.2074 92.064 32.9848 91.8564C32.2428 91.2336 33.5042 71.3732 34.2462 70.8888C35.0624 70.4736 40.7016 69.4356 42.9276 69.2972C44.189 69.228 44.6342 69.574 44.4116 70.4044ZM67.191 69.8508C67.4136 70.266 67.191 74.1412 66.7458 78.5008C65.9296 85.7668 65.707 86.528 64.3714 86.528C62.9616 86.528 62.9616 86.182 63.4068 80.0924C64.0746 71.4424 64.594 69.228 65.7812 69.228C66.3006 69.228 66.8942 69.5048 67.191 69.8508ZM80.7696 72.342C84.3312 73.6568 86.112 76.494 86.112 80.646C86.112 83.2756 85.741 84.2444 83.9602 85.9052C80.3244 89.2268 73.869 87.9812 71.5688 83.5524C69.1202 78.8468 72.1624 71.304 76.3918 71.304C77.208 71.304 79.2114 71.7884 80.7696 72.342ZM98.1324 78.57C100.729 80.2308 102.362 82.722 101.397 83.6216C101.1 83.8292 99.839 82.8604 98.4292 81.4764C95.9064 78.916 92.79 78.0164 92.79 79.8848C92.79 80.4384 93.903 81.6148 95.2386 82.4452C101.546 86.528 103.401 89.7804 100.21 91.372C97.242 92.8252 88.338 89.2268 88.338 86.528C88.338 84.7288 90.2672 84.7288 91.306 86.5972C92.2706 88.1888 96.2774 89.988 97.7614 89.5036C99.6906 88.8116 98.6518 87.2892 94.645 84.6596C90.6382 82.0992 89.2284 79.954 90.1188 77.878C90.7866 76.2864 95.0902 76.6324 98.1324 78.57Z" fill="black"/>
<path d="M49.754 74.418C49.754 77.3244 49.9024 77.532 51.6832 77.532C54.7254 77.532 56.432 76.2864 56.432 74.1412C56.432 71.996 55.3932 71.304 51.9058 71.304C49.8282 71.304 49.754 71.4424 49.754 74.418Z" fill="black"/>
<path d="M75.6498 74.6948C74.4626 75.5944 74.0916 76.7016 74.0174 79.4004C73.9432 83.3448 74.8336 84.798 77.6532 85.3516C80.6212 85.836 83.144 83.5524 83.144 80.2308C83.144 76.6324 82.1794 75.11 79.5082 74.2104C77.6532 73.5876 76.9854 73.726 75.6498 74.6948Z" fill="black"/>
<path d="M17.0318 19.404C8.7956 24.7324 2.7112 33.0364 0.856205 41.4096C-3.1506 59.2632 7.831 85.49 30.6104 112.616C33.9494 116.561 36.6948 119.744 36.8432 119.744C36.9174 119.744 39.2918 117.599 42.1114 114.969C49.4572 108.049 52.7962 106.942 66.82 107.011C75.724 107.08 80.3986 107.565 93.532 109.641C132.264 115.869 140.13 116.976 146.362 116.976C154.228 116.976 161.425 115.661 167.732 112.962C172.629 110.886 178.862 106.388 178.046 105.558C177.749 105.35 175.894 105.904 173.891 106.873C161.425 112.962 144.285 113.101 110.969 107.288C82.6988 102.375 77.6532 101.683 68.2298 101.268C60.0678 100.922 58.2128 101.06 53.6866 102.306C49.1604 103.62 40.1822 108.603 40.108 109.918C40.0338 110.194 39.0692 111.44 37.882 112.755C35.7302 115.108 35.656 115.177 34.0978 113.793C31.6492 111.717 22.9678 100.022 18.7384 93.102C13.9896 85.3516 9.4634 75.0408 7.6826 68.0516C5.6792 60.0936 5.9018 47.7068 8.1278 40.856C10.3538 34.0052 13.9896 27.9848 18.961 22.9332C25.3422 16.5668 24.3034 14.6984 17.0318 19.404Z" fill="black"/>
<path d="M188.508 33.7284C187.098 34.3512 181.607 35.8044 176.265 37.1192L166.619 39.4028H172.184C181.162 39.472 191.476 36.4964 192.07 33.7284C192.366 32.3444 191.921 32.3444 188.508 33.7284Z" fill="black"/>
</svg>
